# xmcd
#
# Track frame offsets: 
#        150
#        15851
#        37345
#        61164
#        80906
#        100400
#        119414
#        145052
#        170078
#        191940
#        218876
#
# Disc length: 3267 seconds
#
# Revision: 0
# Processed by: cddbd v1.5.2PL0 Copyright (c) Steve Scherf et al.
# Submitted via: ExactAudioCopy v1.0b4
#
DISCID=a30cc10b
DTITLE=Dana Gillespie - Cat's Meow
DYEAR=2015
DGENRE=Blues
TTITLE0=Cat's Meow
TTITLE1=Love Matters
TTITLE2=Eternally Yours
TTITLE3=Eureka Moment
TTITLE4=Last Chance Saloon
TTITLE5=Hands Of Hope
TTITLE6=Love Moves
TTITLE7=Running Out Of Steam
TTITLE8=It's Alchemy
TTITLE9=Two Faced Girls
TTITLE10=Giving Out To Everyone
EXTD=
EXTT0=
EXTT1=
EXTT2=
EXTT3=
EXTT4=
EXTT5=
EXTT6=
EXTT7=
EXTT8=
EXTT9=
EXTT10=
PLAYORDER=
